<svg width="220" height="23" viewBox="0 0 220 23" fill="none" xmlns="http://www.w3.org/2000/svg">
<g clip-path="url(#clip0_1_848)">
<path d="M66.2833 14.8412L60.3374 0.268311H52.3811V22.8121H58.8934V10.3056L63.4802 22.8121H68.9731L73.3338 10.3862V22.8121H80.129V0.268311H72.0876L66.2833 14.8412Z" fill="#231F20"/>
<path d="M13.9306 10.4667L6.93703 0.268311H0.283203V0.536688L8.15448 12.077L15.6861 22.8121H22.3681V22.651L13.9306 10.4667Z" fill="#231F20"/>
<path d="M43.4336 1.44924C41.6215 0.48308 39.5829 0 37.3461 0C35.1376 0 33.099 0.48308 31.2303 1.44924C29.3615 2.4154 27.8892 3.78413 26.8133 5.55543C25.7373 7.29986 25.1994 9.25906 25.1994 11.4598C25.1994 13.6604 25.7373 15.6464 26.8133 17.3909C27.9175 19.1353 29.3899 20.5041 31.2303 21.4971C33.099 22.4632 35.1093 22.9464 37.3461 22.9464C39.5829 22.9464 41.5932 22.4632 43.462 21.4971C45.3306 20.5041 46.7746 19.1353 47.8506 17.3909C48.9265 15.6196 49.4645 13.6604 49.4645 11.4598C49.4645 9.25906 48.9265 7.27307 47.8506 5.55543C46.7746 3.81097 45.3024 2.44224 43.4336 1.44924ZM41.2817 15.6464C40.3191 16.6931 38.9883 17.2031 37.3178 17.2031C35.6189 17.2031 34.2882 16.6931 33.3255 15.6733C32.3628 14.6266 31.8815 13.231 31.8815 11.4866C31.8815 9.71527 32.3628 8.31971 33.3255 7.29986C34.2882 6.25321 35.6189 5.74329 37.3178 5.74329C38.9883 5.74329 40.3191 6.25321 41.2817 7.29986C42.2727 8.31971 42.7541 9.71527 42.7541 11.4866C42.7824 13.2042 42.2727 14.5998 41.2817 15.6464Z" fill="#231F20"/>
<path d="M22.3681 14.7607V0.268311H15.5728V4.56236L22.3681 14.7607Z" fill="#231F20"/>
<path d="M193.272 1.44924C191.431 0.48308 189.392 0 187.156 0C184.948 0 182.909 0.48308 181.04 1.44924C179.171 2.4154 177.699 3.78413 176.623 5.55543C175.547 7.29986 175.009 9.25906 175.009 11.4598C175.009 13.6604 175.547 15.6464 176.623 17.3909C177.728 19.1353 179.199 20.5041 181.04 21.4971C182.909 22.4632 184.919 22.9464 187.156 22.9464C189.364 22.9464 191.403 22.4632 193.272 21.4971C195.141 20.5041 196.584 19.1353 197.66 17.3909C198.737 15.6196 199.274 13.6604 199.274 11.4598C199.274 9.25906 198.737 7.27307 197.66 5.55543C196.584 3.81097 195.112 2.44224 193.272 1.44924ZM191.12 15.6464C190.157 16.6931 188.826 17.2031 187.156 17.2031C185.457 17.2031 184.126 16.6931 183.163 15.6733C182.201 14.6266 181.719 13.231 181.719 11.4866C181.719 9.71527 182.201 8.31971 183.163 7.29986C184.126 6.25321 185.457 5.74329 187.156 5.74329C188.826 5.74329 190.157 6.25321 191.12 7.29986C192.111 8.31971 192.592 9.71527 192.592 11.4866C192.592 13.2042 192.111 14.5998 191.12 15.6464Z" fill="#231F20"/>
<path d="M90.7469 0.268311L82.1393 22.8121H89.0476L90.3221 19.0548H98.7028L99.9772 22.8121H106.914L98.3345 0.268311H90.7469ZM91.9924 14.2239L94.5124 6.97773L97.0607 14.2239H91.9924Z" fill="#231F20"/>
<path d="M201.03 0.268311V5.36749H207.259V22.8121H213.771V5.36749H220V0.268311H201.03Z" fill="#231F20"/>
<path d="M169.177 1.26131C167.846 0.644039 166.232 0.268311 164.334 0.268311H154.594V22.8121H161.107V15.2975H164.334C166.26 15.2975 167.874 14.9217 169.205 14.2508C170.535 13.5799 171.554 12.6674 172.178 11.5402C172.857 10.413 173.197 9.15163 173.197 7.80972C173.197 6.36049 172.857 5.0186 172.178 3.91826C171.498 2.8179 170.507 1.90542 169.177 1.26131ZM163.712 10.1983H161.107V5.36749H163.712C165.581 5.36749 166.487 6.17263 166.487 7.80972C166.487 9.41999 165.552 10.1983 163.712 10.1983Z" fill="#231F20"/>
<path d="M147.856 10.7083C146.893 10.2252 145.676 9.74212 144.175 9.25906C143.156 8.91013 142.42 8.64178 141.882 8.42706C141.372 8.18556 140.919 7.91714 140.579 7.62193C140.239 7.29986 140.07 6.92415 140.07 6.52159C140.07 6.01167 140.239 5.6091 140.551 5.34072C140.863 5.07235 141.259 4.93815 141.768 4.93815C142.42 4.93815 142.93 5.12602 143.354 5.44808C143.779 5.79697 144.006 6.1727 144.034 6.97786H151.169C151.055 4.8308 150.178 3.05951 148.507 1.85181C146.865 0.61727 144.685 0 141.939 0C140.239 0 138.71 0.268378 137.38 0.7783C136.049 1.31505 135.001 2.09335 134.237 3.14002C133.472 4.15986 133.104 5.3944 133.104 6.81679C133.104 8.23921 133.444 9.3932 134.152 10.2789C134.86 11.1377 135.681 11.8086 136.643 12.2917C137.606 12.748 138.852 13.2042 140.41 13.6873C141.853 14.1435 142.901 14.5461 143.552 14.895C144.203 15.2439 144.515 15.7538 144.515 16.4248C144.515 16.9346 144.317 17.3372 143.92 17.6324C143.552 17.9008 143.043 18.035 142.448 18.035C141.768 18.035 141.23 17.874 140.806 17.5251C140.381 17.1762 140.126 16.6394 140.07 15.8343H133.048C133.189 17.9813 134.123 19.9137 135.908 21.1482C137.663 22.3827 139.928 22.9731 142.675 22.9731C144.487 22.9731 146.044 22.6511 147.374 22.0339C148.706 21.4166 149.725 20.5846 150.432 19.5111C151.141 18.4644 151.508 17.2567 151.508 15.9149C151.508 14.5998 151.141 13.5262 150.432 12.6675C149.697 11.8355 148.847 11.1914 147.856 10.7083Z" fill="#231F20"/>
<path d="M124.921 1.74439C123.052 0.778228 120.901 0.268311 118.409 0.268311H109.009V22.8121H118.409C120.872 22.8121 123.024 22.3022 124.893 21.3628C126.762 20.3967 128.206 19.028 129.226 17.3371C130.244 15.6464 130.754 13.714 130.754 11.5402C130.754 9.36635 130.244 7.40715 129.254 5.68955C128.263 3.97193 126.79 2.68371 124.921 1.74439ZM122.43 15.7269C121.326 16.7199 119.825 17.1761 117.899 17.1761H115.521V5.63588H117.899C119.825 5.63588 121.326 6.19946 122.43 7.2193C123.534 8.21229 124.072 9.6347 124.072 11.4865C124.072 13.3115 123.534 14.7339 122.43 15.7269Z" fill="#231F20"/>
<path d="M0 8.31982V22.8122H6.79537V18.5182L0 8.31982Z" fill="#231F20"/>
</g>
<defs>
<clipPath id="clip0_1_848">
<rect width="220" height="23" fill="white"/>
</clipPath>
</defs>
</svg>
